# xmcd
#
# Track frame offsets: 
#        150
#        20512
#        41752
#        58210
#        78920
#        102560
#        129931
#        148515
#
# Disc length: 2187 seconds
#
# Revision: 0
# Processed by: cddbd v1.5.2PL0 Copyright (c) Steve Scherf et al.
# Submitted via: ExactAudioCopy v0.95b3
#
DISCID=6a088908
DTITLE=Jimi Lee - Venson and Lee
DYEAR=2007
DGENRE=Blues
TTITLE0=Pocket Full of Blues
TTITLE1=I Can't Leave your Love Alone
TTITLE2=Laundromat
TTITLE3=Let's Stay Together
TTITLE4=Workin' Too Hard
TTITLE5=Me and Mrs. Jones
TTITLE6=Take it Easy Baby
TTITLE7=It's Alright
EXTD=
EXTT0=
EXTT1=
EXTT2=
EXTT3=
EXTT4=
EXTT5=
EXTT6=
EXTT7=
PLAYORDER=
